<svg width="153" height="80" viewBox="0 0 153 80" fill="none" xmlns="http://www.w3.org/2000/svg">
<path fill-rule="evenodd" clip-rule="evenodd" d="M3.89795 57.2688L17.3534 0.916382H26.0033L38.9782 57.2688H31.1826L28.8866 46.6481L27.6852 41.5668H16.2721L15.1909 46.6481L13.1552 57.2688H3.89795ZM17.3534 36.4855L21.6783 16.1603L26.4838 36.4855H17.3534Z" fill="#29234E"/>
<path d="M59.4414 0.916382H50.6714V57.727H59.4414V0.916382Z" fill="#282447"/>
<path d="M98.4195 0.927368H89.6494V57.5117H98.4195V0.927368Z" fill="#282445"/>
<path d="M78.9305 14.8418H70.1604V57.5119H78.9305V14.8418Z" fill="#BC2032"/>
<path d="M130.901 0.753078C140.163 3.51848 140.965 11.2051 140.8 14.5363L132.881 16.8435V13.6278C132.386 10.4481 132.19 10.1491 130.901 8.17699L130.901 8.17667C129.416 5.90537 124.3 6.41968 121.992 6.84982C120.772 7.07705 118.186 9.87368 118.032 12.3009C117.895 14.4684 119.573 16.4047 120.507 17.2619C122.392 18.9917 138.713 33.1576 139.81 35.8865C140.8 38.3491 141.295 40.29 141.295 42.7363C141.295 44.7447 141.326 49.1165 139.81 51.6302C138.325 54.0928 135.356 56.5733 131.396 57.4818L129.416 57.7269H126.941L122.688 57.4818C122.688 57.4818 119.181 56.5242 116.547 55.0013C114.44 53.7828 112.94 50.6147 112.588 49.9685C111.796 48.5149 110.113 43.3021 110.113 41.1822L113.578 40.465L117.537 39.5565C117.765 44.575 121.097 48.1427 122.487 49.5143C124.116 51.1223 126.228 51.375 129.416 50.913C134.366 50.1958 133.376 44.0991 132.881 41.1822C132.398 38.3391 125.456 32.7426 122.487 30.7343C119.858 28.9566 113.577 22.8604 111.103 19.3778C110.113 16.8435 110.113 15.4807 110.113 12.3009C110.318 8.43335 112.201 6.06288 111.598 6.84982C111.103 7.49545 113.193 3.83554 117.537 1.3987C120.507 0.508078 125.457 -0.872559 130.901 0.753078Z" fill="#282447"/>
<path d="M0.745523 77.3163V73.1163H2.45552C2.90352 73.1163 3.29552 73.2063 3.63152 73.3863C3.97152 73.5623 4.23552 73.8083 4.42352 74.1243C4.61152 74.4403 4.70552 74.8043 4.70552 75.2163C4.70552 75.6283 4.61152 75.9923 4.42352 76.3083C4.23552 76.6243 3.97152 76.8723 3.63152 77.0523C3.29552 77.2283 2.90352 77.3163 2.45552 77.3163H0.745523ZM1.18952 76.9323H2.43152C2.80352 76.9323 3.12552 76.8603 3.39752 76.7163C3.67352 76.5683 3.88752 76.3663 4.03952 76.1103C4.19152 75.8503 4.26752 75.5523 4.26752 75.2163C4.26752 74.8763 4.19152 74.5783 4.03952 74.3223C3.88752 74.0663 3.67352 73.8663 3.39752 73.7223C3.12552 73.5743 2.80352 73.5003 2.43152 73.5003H1.18952V76.9323ZM6.95055 77.3463C6.62255 77.3463 6.33455 77.2783 6.08655 77.1423C5.83855 77.0023 5.64455 76.8123 5.50455 76.5723C5.36455 76.3283 5.29455 76.0503 5.29455 75.7383C5.29455 75.4263 5.36055 75.1503 5.49255 74.9103C5.62855 74.6703 5.81255 74.4823 6.04455 74.3463C6.28055 74.2063 6.54455 74.1363 6.83655 74.1363C7.13255 74.1363 7.39455 74.2043 7.62255 74.3403C7.85455 74.4723 8.03655 74.6603 8.16855 74.9043C8.30055 75.1443 8.36655 75.4223 8.36655 75.7383C8.36655 75.7583 8.36455 75.7803 8.36055 75.8043C8.36055 75.8243 8.36055 75.8463 8.36055 75.8703H5.61855V75.5523H8.13256L7.96455 75.6783C7.96455 75.4503 7.91455 75.2483 7.81455 75.0723C7.71855 74.8923 7.58655 74.7523 7.41855 74.6523C7.25055 74.5523 7.05655 74.5023 6.83655 74.5023C6.62055 74.5023 6.42655 74.5523 6.25455 74.6523C6.08255 74.7523 5.94855 74.8923 5.85255 75.0723C5.75655 75.2523 5.70855 75.4583 5.70855 75.6903V75.7563C5.70855 75.9963 5.76055 76.2083 5.86455 76.3923C5.97255 76.5723 6.12055 76.7143 6.30855 76.8183C6.50055 76.9183 6.71855 76.9683 6.96255 76.9683C7.15455 76.9683 7.33255 76.9343 7.49655 76.8663C7.66455 76.7983 7.80855 76.6943 7.92855 76.5543L8.16855 76.8303C8.02855 76.9983 7.85255 77.1263 7.64055 77.2143C7.43255 77.3023 7.20255 77.3463 6.95055 77.3463ZM10.8596 77.3463C10.5876 77.3463 10.3416 77.2843 10.1216 77.1603C9.90165 77.0323 9.72565 76.8503 9.59365 76.6143C9.46565 76.3743 9.40165 76.0823 9.40165 75.7383C9.40165 75.3943 9.46565 75.1043 9.59365 74.8683C9.72165 74.6283 9.89565 74.4463 10.1156 74.3223C10.3356 74.1983 10.5836 74.1363 10.8596 74.1363C11.1596 74.1363 11.4276 74.2043 11.6636 74.3403C11.9036 74.4723 12.0916 74.6603 12.2276 74.9043C12.3636 75.1443 12.4316 75.4223 12.4316 75.7383C12.4316 76.0583 12.3636 76.3383 12.2276 76.5783C12.0916 76.8183 11.9036 77.0063 11.6636 77.1423C11.4276 77.2783 11.1596 77.3463 10.8596 77.3463ZM9.23365 78.4803V74.1663H9.64165V75.1143L9.59965 75.7443L9.65965 76.3803V78.4803H9.23365ZM10.8296 76.9683C11.0536 76.9683 11.2536 76.9183 11.4296 76.8183C11.6056 76.7143 11.7456 76.5703 11.8496 76.3863C11.9536 76.1983 12.0056 75.9823 12.0056 75.7383C12.0056 75.4943 11.9536 75.2803 11.8496 75.0963C11.7456 74.9123 11.6056 74.7683 11.4296 74.6643C11.2536 74.5603 11.0536 74.5083 10.8296 74.5083C10.6056 74.5083 10.4036 74.5603 10.2236 74.6643C10.0476 74.7683 9.90765 74.9123 9.80365 75.0963C9.70365 75.2803 9.65365 75.4943 9.65365 75.7383C9.65365 75.9823 9.70365 76.1983 9.80365 76.3863C9.90765 76.5703 10.0476 76.7143 10.2236 76.8183C10.4036 76.9183 10.6056 76.9683 10.8296 76.9683ZM15.2565 77.3163V76.6203L15.2385 76.5063V75.3423C15.2385 75.0743 15.1625 74.8683 15.0105 74.7243C14.8625 74.5803 14.6405 74.5083 14.3445 74.5083C14.1405 74.5083 13.9465 74.5423 13.7625 74.6103C13.5785 74.6783 13.4225 74.7683 13.2945 74.8803L13.1025 74.5623C13.2625 74.4263 13.4545 74.3223 13.6785 74.2503C13.9025 74.1743 14.1385 74.1363 14.3865 74.1363C14.7945 74.1363 15.1085 74.2383 15.3285 74.4423C15.5525 74.6423 15.6645 74.9483 15.6645 75.3603V77.3163H15.2565ZM14.1705 77.3463C13.9345 77.3463 13.7285 77.3083 13.5525 77.2323C13.3805 77.1523 13.2485 77.0443 13.1565 76.9083C13.0645 76.7683 13.0185 76.6083 13.0185 76.4283C13.0185 76.2643 13.0565 76.1163 13.1325 75.9843C13.2125 75.8483 13.3405 75.7403 13.5165 75.6603C13.6965 75.5763 13.9365 75.5343 14.2365 75.5343H15.3225V75.8523H14.2485C13.9445 75.8523 13.7325 75.9063 13.6125 76.0143C13.4965 76.1223 13.4385 76.2563 13.4385 76.4163C13.4385 76.5963 13.5085 76.7403 13.6485 76.8483C13.7885 76.9563 13.9845 77.0103 14.2365 77.0103C14.4765 77.0103 14.6825 76.9563 14.8545 76.8483C15.0305 76.7363 15.1585 76.5763 15.2385 76.3683L15.3345 76.6623C15.2545 76.8703 15.1145 77.0363 14.9145 77.1603C14.7185 77.2843 14.4705 77.3463 14.1705 77.3463ZM16.8215 77.3163V74.1663H17.2295V75.0243L17.1875 74.8743C17.2755 74.6343 17.4235 74.4523 17.6315 74.3283C17.8395 74.2003 18.0975 74.1363 18.4055 74.1363V74.5503C18.3895 74.5503 18.3735 74.5503 18.3575 74.5503C18.3415 74.5463 18.3255 74.5443 18.3095 74.5443C17.9775 74.5443 17.7175 74.6463 17.5295 74.8503C17.3415 75.0503 17.2475 75.3363 17.2475 75.7083V77.3163H16.8215ZM20.3136 77.3463C20.0176 77.3463 19.7896 77.2663 19.6296 77.1063C19.4696 76.9463 19.3896 76.7203 19.3896 76.4283V73.4703H19.8156V76.4043C19.8156 76.5883 19.8616 76.7303 19.9536 76.8303C20.0496 76.9303 20.1856 76.9803 20.3616 76.9803C20.5496 76.9803 20.7056 76.9263 20.8296 76.8183L20.9796 77.1243C20.8956 77.2003 20.7936 77.2563 20.6736 77.2923C20.5576 77.3283 20.4376 77.3463 20.3136 77.3463ZM18.8256 74.5203V74.1663H20.7756V74.5203H18.8256ZM25.6911 74.1363C25.9471 74.1363 26.1691 74.1863 26.3571 74.2863C26.5491 74.3823 26.6971 74.5303 26.8011 74.7303C26.9091 74.9303 26.9631 75.1823 26.9631 75.4863V77.3163H26.5371V75.5283C26.5371 75.1963 26.4571 74.9463 26.2971 74.7783C26.1411 74.6063 25.9191 74.5203 25.6311 74.5203C25.4151 74.5203 25.2271 74.5663 25.0671 74.6583C24.9111 74.7463 24.7891 74.8763 24.7011 75.0483C24.6171 75.2163 24.5751 75.4203 24.5751 75.6603V77.3163H24.1491V75.5283C24.1491 75.1963 24.0691 74.9463 23.9091 74.7783C23.7491 74.6063 23.5251 74.5203 23.2371 74.5203C23.0251 74.5203 22.8391 74.5663 22.6791 74.6583C22.5191 74.7463 22.3951 74.8763 22.3071 75.0483C22.2231 75.2163 22.1811 75.4203 22.1811 75.6603V77.3163H21.7551V74.1663H22.1631V75.0183L22.0971 74.8683C22.1931 74.6403 22.3471 74.4623 22.5591 74.3343C22.7751 74.2023 23.0291 74.1363 23.3211 74.1363C23.6291 74.1363 23.8911 74.2143 24.1071 74.3703C24.3231 74.5223 24.4631 74.7523 24.5271 75.0603L24.3591 74.9943C24.4511 74.7383 24.6131 74.5323 24.8451 74.3763C25.0811 74.2163 25.3631 74.1363 25.6911 74.1363ZM29.4564 77.3463C29.1284 77.3463 28.8404 77.2783 28.5924 77.1423C28.3444 77.0023 28.1504 76.8123 28.0104 76.5723C27.8704 76.3283 27.8004 76.0503 27.8004 75.7383C27.8004 75.4263 27.8664 75.1503 27.9984 74.9103C28.1344 74.6703 28.3184 74.4823 28.5504 74.3463C28.7864 74.2063 29.0504 74.1363 29.3424 74.1363C29.6384 74.1363 29.9004 74.2043 30.1284 74.3403C30.3604 74.4723 30.5424 74.6603 30.6744 74.9043C30.8064 75.1443 30.8724 75.4223 30.8724 75.7383C30.8724 75.7583 30.8704 75.7803 30.8664 75.8043C30.8664 75.8243 30.8664 75.8463 30.8664 75.8703H28.1244V75.5523H30.6384L30.4704 75.6783C30.4704 75.4503 30.4204 75.2483 30.3204 75.0723C30.2244 74.8923 30.0924 74.7523 29.9244 74.6523C29.7564 74.5523 29.5624 74.5023 29.3424 74.5023C29.1264 74.5023 28.9324 74.5523 28.7604 74.6523C28.5884 74.7523 28.4544 74.8923 28.3584 75.0723C28.2624 75.2523 28.2144 75.4583 28.2144 75.6903V75.7563C28.2144 75.9963 28.2664 76.2083 28.3704 76.3923C28.4784 76.5723 28.6264 76.7143 28.8144 76.8183C29.0064 76.9183 29.2244 76.9683 29.4684 76.9683C29.6604 76.9683 29.8384 76.9343 30.0024 76.8663C30.1704 76.7983 30.3144 76.6943 30.4344 76.5543L30.6744 76.8303C30.5344 76.9983 30.3584 77.1263 30.1464 77.2143C29.9384 77.3023 29.7084 77.3463 29.4564 77.3463ZM33.3475 74.1363C33.6035 74.1363 33.8275 74.1863 34.0195 74.2863C34.2155 74.3823 34.3675 74.5303 34.4755 74.7303C34.5875 74.9303 34.6435 75.1823 34.6435 75.4863V77.3163H34.2175V75.5283C34.2175 75.1963 34.1335 74.9463 33.9655 74.7783C33.8015 74.6063 33.5695 74.5203 33.2695 74.5203C33.0455 74.5203 32.8495 74.5663 32.6815 74.6583C32.5175 74.7463 32.3895 74.8763 32.2975 75.0483C32.2095 75.2163 32.1655 75.4203 32.1655 75.6603V77.3163H31.7395V74.1663H32.1475V75.0303L32.0815 74.8683C32.1815 74.6403 32.3415 74.4623 32.5615 74.3343C32.7815 74.2023 33.0435 74.1363 33.3475 74.1363ZM36.7902 77.3463C36.4942 77.3463 36.2662 77.2663 36.1062 77.1063C35.9462 76.9463 35.8662 76.7203 35.8662 76.4283V73.4703H36.2922V76.4043C36.2922 76.5883 36.3382 76.7303 36.4302 76.8303C36.5262 76.9303 36.6622 76.9803 36.8382 76.9803C37.0262 76.9803 37.1822 76.9263 37.3062 76.8183L37.4562 77.1243C37.3722 77.2003 37.2702 77.2563 37.1502 77.2923C37.0342 77.3283 36.9142 77.3463 36.7902 77.3463ZM35.3022 74.5203V74.1663H37.2522V74.5203H35.3022ZM41.086 77.3463C40.782 77.3463 40.508 77.2783 40.264 77.1423C40.024 77.0023 39.834 76.8123 39.694 76.5723C39.554 76.3283 39.484 76.0503 39.484 75.7383C39.484 75.4223 39.554 75.1443 39.694 74.9043C39.834 74.6643 40.024 74.4763 40.264 74.3403C40.504 74.2043 40.778 74.1363 41.086 74.1363C41.398 74.1363 41.674 74.2043 41.914 74.3403C42.158 74.4763 42.348 74.6643 42.484 74.9043C42.624 75.1443 42.694 75.4223 42.694 75.7383C42.694 76.0503 42.624 76.3283 42.484 76.5723C42.348 76.8123 42.158 77.0023 41.914 77.1423C41.67 77.2783 41.394 77.3463 41.086 77.3463ZM41.086 76.9683C41.314 76.9683 41.516 76.9183 41.692 76.8183C41.868 76.7143 42.006 76.5703 42.106 76.3863C42.21 76.1983 42.262 75.9823 42.262 75.7383C42.262 75.4903 42.21 75.2743 42.106 75.0903C42.006 74.9063 41.868 74.7643 41.692 74.6643C41.516 74.5603 41.316 74.5083 41.092 74.5083C40.868 74.5083 40.668 74.5603 40.492 74.6643C40.316 74.7643 40.176 74.9063 40.072 75.0903C39.968 75.2743 39.916 75.4903 39.916 75.7383C39.916 75.9823 39.968 76.1983 40.072 76.3863C40.176 76.5703 40.316 76.7143 40.492 76.8183C40.668 76.9183 40.866 76.9683 41.086 76.9683ZM43.6357 77.3163V73.7703C43.6357 73.4903 43.7177 73.2643 43.8817 73.0923C44.0457 72.9203 44.2817 72.8343 44.5897 72.8343C44.7097 72.8343 44.8257 72.8503 44.9377 72.8823C45.0497 72.9143 45.1437 72.9643 45.2197 73.0323L45.0757 73.3503C45.0157 73.2983 44.9457 73.2603 44.8657 73.2363C44.7857 73.2083 44.6997 73.1943 44.6077 73.1943C44.4277 73.1943 44.2897 73.2443 44.1937 73.3443C44.0977 73.4443 44.0497 73.5923 44.0497 73.7883V74.2683L44.0617 74.4663V77.3163H43.6357ZM43.0717 74.5203V74.1663H45.0217V74.5203H43.0717ZM46.5852 77.3163L48.5052 73.1163H48.9432L50.8632 77.3163H50.3952L48.6312 73.3743H48.8112L47.0472 77.3163H46.5852ZM47.3412 76.1943L47.4732 75.8343H49.9152L50.0472 76.1943H47.3412ZM53.094 77.3463C52.822 77.3463 52.576 77.2843 52.356 77.1603C52.136 77.0323 51.96 76.8503 51.828 76.6143C51.7 76.3743 51.636 76.0823 51.636 75.7383C51.636 75.3943 51.7 75.1043 51.828 74.8683C51.956 74.6283 52.13 74.4463 52.35 74.3223C52.57 74.1983 52.818 74.1363 53.094 74.1363C53.394 74.1363 53.662 74.2043 53.898 74.3403C54.138 74.4723 54.326 74.6603 54.462 74.9043C54.598 75.1443 54.666 75.4223 54.666 75.7383C54.666 76.0583 54.598 76.3383 54.462 76.5783C54.326 76.8183 54.138 77.0063 53.898 77.1423C53.662 77.2783 53.394 77.3463 53.094 77.3463ZM51.468 78.4803V74.1663H51.876V75.1143L51.834 75.7443L51.894 76.3803V78.4803H51.468ZM53.064 76.9683C53.288 76.9683 53.488 76.9183 53.664 76.8183C53.84 76.7143 53.98 76.5703 54.084 76.3863C54.188 76.1983 54.24 75.9823 54.24 75.7383C54.24 75.4943 54.188 75.2803 54.084 75.0963C53.98 74.9123 53.84 74.7683 53.664 74.6643C53.488 74.5603 53.288 74.5083 53.064 74.5083C52.84 74.5083 52.638 74.5603 52.458 74.6643C52.282 74.7683 52.142 74.9123 52.038 75.0963C51.938 75.2803 51.888 75.4943 51.888 75.7383C51.888 75.9823 51.938 76.1983 52.038 76.3863C52.142 76.5703 52.282 76.7143 52.458 76.8183C52.638 76.9183 52.84 76.9683 53.064 76.9683ZM57.1604 77.3463C56.8884 77.3463 56.6424 77.2843 56.4224 77.1603C56.2024 77.0323 56.0264 76.8503 55.8944 76.6143C55.7664 76.3743 55.7024 76.0823 55.7024 75.7383C55.7024 75.3943 55.7664 75.1043 55.8944 74.8683C56.0224 74.6283 56.1964 74.4463 56.4164 74.3223C56.6364 74.1983 56.8844 74.1363 57.1604 74.1363C57.4604 74.1363 57.7284 74.2043 57.9644 74.3403C58.2044 74.4723 58.3924 74.6603 58.5284 74.9043C58.6644 75.1443 58.7324 75.4223 58.7324 75.7383C58.7324 76.0583 58.6644 76.3383 58.5284 76.5783C58.3924 76.8183 58.2044 77.0063 57.9644 77.1423C57.7284 77.2783 57.4604 77.3463 57.1604 77.3463ZM55.5344 78.4803V74.1663H55.9424V75.1143L55.9004 75.7443L55.9604 76.3803V78.4803H55.5344ZM57.1304 76.9683C57.3544 76.9683 57.5544 76.9183 57.7304 76.8183C57.9064 76.7143 58.0464 76.5703 58.1504 76.3863C58.2544 76.1983 58.3064 75.9823 58.3064 75.7383C58.3064 75.4943 58.2544 75.2803 58.1504 75.0963C58.0464 74.9123 57.9064 74.7683 57.7304 74.6643C57.5544 74.5603 57.3544 74.5083 57.1304 74.5083C56.9064 74.5083 56.7044 74.5603 56.5244 74.6643C56.3484 74.7683 56.2084 74.9123 56.1044 75.0963C56.0044 75.2803 55.9544 75.4943 55.9544 75.7383C55.9544 75.9823 56.0044 76.1983 56.1044 76.3863C56.2084 76.5703 56.3484 76.7143 56.5244 76.8183C56.7044 76.9183 56.9064 76.9683 57.1304 76.9683ZM59.6008 77.3163V72.8643H60.0268V77.3163H59.6008ZM61.2122 77.3163V74.1663H61.6382V77.3163H61.2122ZM61.4282 73.4703C61.3402 73.4703 61.2662 73.4403 61.2062 73.3803C61.1462 73.3203 61.1162 73.2483 61.1162 73.1643C61.1162 73.0803 61.1462 73.0103 61.2062 72.9543C61.2662 72.8943 61.3402 72.8643 61.4282 72.8643C61.5162 72.8643 61.5902 72.8923 61.6502 72.9483C61.7102 73.0043 61.7402 73.0743 61.7402 73.1583C61.7402 73.2463 61.7102 73.3203 61.6502 73.3803C61.5942 73.4403 61.5202 73.4703 61.4282 73.4703ZM64.1615 77.3463C63.8335 77.3463 63.5455 77.2783 63.2975 77.1423C63.0495 77.0023 62.8555 76.8123 62.7155 76.5723C62.5755 76.3283 62.5055 76.0503 62.5055 75.7383C62.5055 75.4263 62.5715 75.1503 62.7035 74.9103C62.8395 74.6703 63.0235 74.4823 63.2555 74.3463C63.4915 74.2063 63.7555 74.1363 64.0475 74.1363C64.3435 74.1363 64.6055 74.2043 64.8335 74.3403C65.0655 74.4723 65.2475 74.6603 65.3795 74.9043C65.5115 75.1443 65.5775 75.4223 65.5775 75.7383C65.5775 75.7583 65.5755 75.7803 65.5715 75.8043C65.5715 75.8243 65.5715 75.8463 65.5715 75.8703H62.8295V75.5523H65.3435L65.1755 75.6783C65.1755 75.4503 65.1255 75.2483 65.0255 75.0723C64.9295 74.8923 64.7975 74.7523 64.6295 74.6523C64.4615 74.5523 64.2675 74.5023 64.0475 74.5023C63.8315 74.5023 63.6375 74.5523 63.4655 74.6523C63.2935 74.7523 63.1595 74.8923 63.0635 75.0723C62.9675 75.2523 62.9195 75.4583 62.9195 75.6903V75.7563C62.9195 75.9963 62.9715 76.2083 63.0755 76.3923C63.1835 76.5723 63.3315 76.7143 63.5195 76.8183C63.7115 76.9183 63.9295 76.9683 64.1735 76.9683C64.3655 76.9683 64.5435 76.9343 64.7075 76.8663C64.8755 76.7983 65.0195 76.6943 65.1395 76.5543L65.3795 76.8303C65.2395 76.9983 65.0635 77.1263 64.8515 77.2143C64.6435 77.3023 64.4135 77.3463 64.1615 77.3463ZM67.6986 77.3463C67.3986 77.3463 67.1286 77.2783 66.8886 77.1423C66.6526 77.0063 66.4666 76.8183 66.3306 76.5783C66.1946 76.3343 66.1266 76.0543 66.1266 75.7383C66.1266 75.4183 66.1946 75.1383 66.3306 74.8983C66.4666 74.6583 66.6526 74.4723 66.8886 74.3403C67.1286 74.2043 67.3986 74.1363 67.6986 74.1363C67.9746 74.1363 68.2206 74.1983 68.4366 74.3223C68.6566 74.4463 68.8306 74.6283 68.9586 74.8683C69.0906 75.1043 69.1566 75.3943 69.1566 75.7383C69.1566 76.0783 69.0926 76.3683 68.9646 76.6083C68.8366 76.8483 68.6626 77.0323 68.4426 77.1603C68.2266 77.2843 67.9786 77.3463 67.6986 77.3463ZM67.7286 76.9683C67.9526 76.9683 68.1526 76.9183 68.3286 76.8183C68.5086 76.7143 68.6486 76.5703 68.7486 76.3863C68.8526 76.1983 68.9046 75.9823 68.9046 75.7383C68.9046 75.4903 68.8526 75.2743 68.7486 75.0903C68.6486 74.9063 68.5086 74.7643 68.3286 74.6643C68.1526 74.5603 67.9526 74.5083 67.7286 74.5083C67.5086 74.5083 67.3106 74.5603 67.1346 74.6643C66.9586 74.7643 66.8186 74.9063 66.7146 75.0903C66.6106 75.2743 66.5586 75.4903 66.5586 75.7383C66.5586 75.9823 66.6106 76.1983 66.7146 76.3863C66.8186 76.5703 66.9586 76.7143 67.1346 76.8183C67.3106 76.9183 67.5086 76.9683 67.7286 76.9683ZM68.9166 77.3163V76.3683L68.9586 75.7323L68.8986 75.0963V72.8643H69.3246V77.3163H68.9166ZM72.1713 77.3163V73.1163H72.5373L74.4573 76.3923H74.2653L76.1673 73.1163H76.5333V77.3163H76.1073V73.7823H76.2093L74.4573 76.7823H74.2473L72.4833 73.7823H72.5973V77.3163H72.1713ZM79.7858 77.3163V76.6203L79.7678 76.5063V75.3423C79.7678 75.0743 79.6918 74.8683 79.5398 74.7243C79.3918 74.5803 79.1698 74.5083 78.8738 74.5083C78.6698 74.5083 78.4758 74.5423 78.2918 74.6103C78.1078 74.6783 77.9518 74.7683 77.8238 74.8803L77.6318 74.5623C77.7918 74.4263 77.9838 74.3223 78.2078 74.2503C78.4318 74.1743 78.6678 74.1363 78.9158 74.1363C79.3238 74.1363 79.6378 74.2383 79.8578 74.4423C80.0818 74.6423 80.1938 74.9483 80.1938 75.3603V77.3163H79.7858ZM78.6998 77.3463C78.4638 77.3463 78.2578 77.3083 78.0818 77.2323C77.9098 77.1523 77.7778 77.0443 77.6858 76.9083C77.5938 76.7683 77.5478 76.6083 77.5478 76.4283C77.5478 76.2643 77.5858 76.1163 77.6618 75.9843C77.7418 75.8483 77.8698 75.7403 78.0458 75.6603C78.2258 75.5763 78.4658 75.5343 78.7658 75.5343H79.8518V75.8523H78.7778C78.4738 75.8523 78.2618 75.9063 78.1418 76.0143C78.0258 76.1223 77.9678 76.2563 77.9678 76.4163C77.9678 76.5963 78.0378 76.7403 78.1778 76.8483C78.3178 76.9563 78.5138 77.0103 78.7658 77.0103C79.0058 77.0103 79.2118 76.9563 79.3838 76.8483C79.5598 76.7363 79.6878 76.5763 79.7678 76.3683L79.8638 76.6623C79.7838 76.8703 79.6438 77.0363 79.4438 77.1603C79.2478 77.2843 78.9998 77.3463 78.6998 77.3463ZM82.3468 77.3463C82.0508 77.3463 81.8228 77.2663 81.6628 77.1063C81.5028 76.9463 81.4228 76.7203 81.4228 76.4283V73.4703H81.8488V76.4043C81.8488 76.5883 81.8948 76.7303 81.9868 76.8303C82.0828 76.9303 82.2188 76.9803 82.3948 76.9803C82.5828 76.9803 82.7388 76.9263 82.8628 76.8183L83.0128 77.1243C82.9288 77.2003 82.8268 77.2563 82.7068 77.2923C82.5908 77.3283 82.4708 77.3463 82.3468 77.3463ZM80.8588 74.5203V74.1663H82.8088V74.5203H80.8588ZM85.3963 74.1363C85.6523 74.1363 85.8763 74.1863 86.0683 74.2863C86.2643 74.3823 86.4163 74.5303 86.5243 74.7303C86.6363 74.9303 86.6923 75.1823 86.6923 75.4863V77.3163H86.2663V75.5283C86.2663 75.1963 86.1823 74.9463 86.0143 74.7783C85.8503 74.6063 85.6183 74.5203 85.3183 74.5203C85.0943 74.5203 84.8983 74.5663 84.7303 74.6583C84.5663 74.7463 84.4383 74.8763 84.3463 75.0483C84.2583 75.2163 84.2143 75.4203 84.2143 75.6603V77.3163H83.7883V72.8643H84.2143V75.0303L84.1303 74.8683C84.2303 74.6403 84.3903 74.4623 84.6103 74.3343C84.8303 74.2023 85.0923 74.1363 85.3963 74.1363ZM89.181 77.3463C88.853 77.3463 88.565 77.2783 88.317 77.1423C88.069 77.0023 87.875 76.8123 87.735 76.5723C87.595 76.3283 87.525 76.0503 87.525 75.7383C87.525 75.4263 87.591 75.1503 87.723 74.9103C87.859 74.6703 88.043 74.4823 88.275 74.3463C88.511 74.2063 88.775 74.1363 89.067 74.1363C89.363 74.1363 89.625 74.2043 89.853 74.3403C90.085 74.4723 90.267 74.6603 90.399 74.9043C90.531 75.1443 90.597 75.4223 90.597 75.7383C90.597 75.7583 90.595 75.7803 90.591 75.8043C90.591 75.8243 90.591 75.8463 90.591 75.8703H87.849V75.5523H90.363L90.195 75.6783C90.195 75.4503 90.145 75.2483 90.045 75.0723C89.949 74.8923 89.817 74.7523 89.649 74.6523C89.481 74.5523 89.287 74.5023 89.067 74.5023C88.851 74.5023 88.657 74.5523 88.485 74.6523C88.313 74.7523 88.179 74.8923 88.083 75.0723C87.987 75.2523 87.939 75.4583 87.939 75.6903V75.7563C87.939 75.9963 87.991 76.2083 88.095 76.3923C88.203 76.5723 88.351 76.7143 88.539 76.8183C88.731 76.9183 88.949 76.9683 89.193 76.9683C89.385 76.9683 89.563 76.9343 89.727 76.8663C89.895 76.7983 90.039 76.6943 90.159 76.5543L90.399 76.8303C90.259 76.9983 90.083 77.1263 89.871 77.2143C89.663 77.3023 89.433 77.3463 89.181 77.3463ZM95.4001 74.1363C95.6561 74.1363 95.8781 74.1863 96.0661 74.2863C96.2581 74.3823 96.4061 74.5303 96.5101 74.7303C96.6181 74.9303 96.6721 75.1823 96.6721 75.4863V77.3163H96.2461V75.5283C96.2461 75.1963 96.1661 74.9463 96.0061 74.7783C95.8501 74.6063 95.6281 74.5203 95.3401 74.5203C95.1241 74.5203 94.9361 74.5663 94.7761 74.6583C94.6201 74.7463 94.4981 74.8763 94.4101 75.0483C94.3261 75.2163 94.2841 75.4203 94.2841 75.6603V77.3163H93.8581V75.5283C93.8581 75.1963 93.7781 74.9463 93.6181 74.7783C93.4581 74.6063 93.2341 74.5203 92.9461 74.5203C92.7341 74.5203 92.5481 74.5663 92.3881 74.6583C92.2281 74.7463 92.1041 74.8763 92.0161 75.0483C91.9321 75.2163 91.8901 75.4203 91.8901 75.6603V77.3163H91.4641V74.1663H91.8721V75.0183L91.8061 74.8683C91.9021 74.6403 92.0561 74.4623 92.2681 74.3343C92.4841 74.2023 92.7381 74.1363 93.0301 74.1363C93.3381 74.1363 93.6001 74.2143 93.8161 74.3703C94.0321 74.5223 94.1721 74.7523 94.2361 75.0603L94.0681 74.9943C94.1601 74.7383 94.3221 74.5323 94.5541 74.3763C94.7901 74.2163 95.0721 74.1363 95.4001 74.1363ZM99.8014 77.3163V76.6203L99.7834 76.5063V75.3423C99.7834 75.0743 99.7074 74.8683 99.5554 74.7243C99.4074 74.5803 99.1854 74.5083 98.8894 74.5083C98.6854 74.5083 98.4914 74.5423 98.3074 74.6103C98.1234 74.6783 97.9674 74.7683 97.8394 74.8803L97.6474 74.5623C97.8074 74.4263 97.9994 74.3223 98.2234 74.2503C98.4474 74.1743 98.6834 74.1363 98.9314 74.1363C99.3394 74.1363 99.6534 74.2383 99.8734 74.4423C100.097 74.6423 100.209 74.9483 100.209 75.3603V77.3163H99.8014ZM98.7154 77.3463C98.4794 77.3463 98.2734 77.3083 98.0974 77.2323C97.9254 77.1523 97.7934 77.0443 97.7014 76.9083C97.6094 76.7683 97.5634 76.6083 97.5634 76.4283C97.5634 76.2643 97.6014 76.1163 97.6774 75.9843C97.7574 75.8483 97.8854 75.7403 98.0614 75.6603C98.2414 75.5763 98.4814 75.5343 98.7814 75.5343H99.8674V75.8523H98.7934C98.4894 75.8523 98.2774 75.9063 98.1574 76.0143C98.0414 76.1223 97.9834 76.2563 97.9834 76.4163C97.9834 76.5963 98.0534 76.7403 98.1934 76.8483C98.3334 76.9563 98.5294 77.0103 98.7814 77.0103C99.0214 77.0103 99.2274 76.9563 99.3994 76.8483C99.5754 76.7363 99.7034 76.5763 99.7834 76.3683L99.8794 76.6623C99.7994 76.8703 99.6594 77.0363 99.4594 77.1603C99.2634 77.2843 99.0154 77.3463 98.7154 77.3463ZM102.362 77.3463C102.066 77.3463 101.838 77.2663 101.678 77.1063C101.518 76.9463 101.438 76.7203 101.438 76.4283V73.4703H101.864V76.4043C101.864 76.5883 101.91 76.7303 102.002 76.8303C102.098 76.9303 102.234 76.9803 102.41 76.9803C102.598 76.9803 102.754 76.9263 102.878 76.8183L103.028 77.1243C102.944 77.2003 102.842 77.2563 102.722 77.2923C102.606 77.3283 102.486 77.3463 102.362 77.3463ZM100.874 74.5203V74.1663H102.824V74.5203H100.874ZM103.804 77.3163V74.1663H104.23V77.3163H103.804ZM104.02 73.4703C103.932 73.4703 103.858 73.4403 103.798 73.3803C103.738 73.3203 103.708 73.2483 103.708 73.1643C103.708 73.0803 103.738 73.0103 103.798 72.9543C103.858 72.8943 103.932 72.8643 104.02 72.8643C104.108 72.8643 104.182 72.8923 104.242 72.9483C104.302 73.0043 104.332 73.0743 104.332 73.1583C104.332 73.2463 104.302 73.3203 104.242 73.3803C104.186 73.4403 104.112 73.4703 104.02 73.4703ZM106.723 77.3463C106.411 77.3463 106.131 77.2783 105.883 77.1423C105.639 77.0023 105.447 76.8123 105.307 76.5723C105.167 76.3283 105.097 76.0503 105.097 75.7383C105.097 75.4223 105.167 75.1443 105.307 74.9043C105.447 74.6643 105.639 74.4763 105.883 74.3403C106.131 74.2043 106.411 74.1363 106.723 74.1363C106.991 74.1363 107.233 74.1883 107.449 74.2923C107.665 74.3963 107.835 74.5523 107.959 74.7603L107.641 74.9763C107.533 74.8163 107.399 74.6983 107.239 74.6223C107.079 74.5463 106.905 74.5083 106.717 74.5083C106.493 74.5083 106.291 74.5603 106.111 74.6643C105.931 74.7643 105.789 74.9063 105.685 75.0903C105.581 75.2743 105.529 75.4903 105.529 75.7383C105.529 75.9863 105.581 76.2023 105.685 76.3863C105.789 76.5703 105.931 76.7143 106.111 76.8183C106.291 76.9183 106.493 76.9683 106.717 76.9683C106.905 76.9683 107.079 76.9303 107.239 76.8543C107.399 76.7783 107.533 76.6623 107.641 76.5063L107.959 76.7223C107.835 76.9263 107.665 77.0823 107.449 77.1903C107.233 77.2943 106.991 77.3463 106.723 77.3463ZM109.642 77.3463C109.382 77.3463 109.136 77.3103 108.904 77.2383C108.672 77.1623 108.49 77.0683 108.358 76.9563L108.55 76.6203C108.678 76.7163 108.842 76.8003 109.042 76.8723C109.242 76.9403 109.452 76.9743 109.672 76.9743C109.972 76.9743 110.188 76.9283 110.32 76.8363C110.452 76.7403 110.518 76.6143 110.518 76.4583C110.518 76.3423 110.48 76.2523 110.404 76.1883C110.332 76.1203 110.236 76.0703 110.116 76.0383C109.996 76.0023 109.862 75.9723 109.714 75.9483C109.566 75.9243 109.418 75.8963 109.27 75.8643C109.126 75.8323 108.994 75.7863 108.874 75.7263C108.754 75.6623 108.656 75.5763 108.58 75.4683C108.508 75.3603 108.472 75.2163 108.472 75.0363C108.472 74.8643 108.52 74.7103 108.616 74.5743C108.712 74.4383 108.852 74.3323 109.036 74.2563C109.224 74.1763 109.452 74.1363 109.72 74.1363C109.924 74.1363 110.128 74.1643 110.332 74.2203C110.536 74.2723 110.704 74.3423 110.836 74.4303L110.65 74.7723C110.51 74.6763 110.36 74.6083 110.2 74.5683C110.04 74.5243 109.88 74.5023 109.72 74.5023C109.436 74.5023 109.226 74.5523 109.09 74.6523C108.958 74.7483 108.892 74.8723 108.892 75.0243C108.892 75.1443 108.928 75.2383 109 75.3063C109.076 75.3743 109.174 75.4283 109.294 75.4683C109.418 75.5043 109.552 75.5343 109.696 75.5583C109.844 75.5823 109.99 75.6123 110.134 75.6483C110.282 75.6803 110.416 75.7263 110.536 75.7863C110.66 75.8423 110.758 75.9243 110.83 76.0323C110.906 76.1363 110.944 76.2743 110.944 76.4463C110.944 76.6303 110.892 76.7903 110.788 76.9263C110.688 77.0583 110.54 77.1623 110.344 77.2383C110.152 77.3103 109.918 77.3463 109.642 77.3463ZM115.27 77.3163V76.6203L115.252 76.5063V75.3423C115.252 75.0743 115.176 74.8683 115.024 74.7243C114.876 74.5803 114.654 74.5083 114.358 74.5083C114.154 74.5083 113.96 74.5423 113.776 74.6103C113.592 74.6783 113.436 74.7683 113.308 74.8803L113.116 74.5623C113.276 74.4263 113.468 74.3223 113.692 74.2503C113.916 74.1743 114.152 74.1363 114.4 74.1363C114.808 74.1363 115.122 74.2383 115.342 74.4423C115.566 74.6423 115.678 74.9483 115.678 75.3603V77.3163H115.27ZM114.184 77.3463C113.948 77.3463 113.742 77.3083 113.566 77.2323C113.394 77.1523 113.262 77.0443 113.17 76.9083C113.078 76.7683 113.032 76.6083 113.032 76.4283C113.032 76.2643 113.07 76.1163 113.146 75.9843C113.226 75.8483 113.354 75.7403 113.53 75.6603C113.71 75.5763 113.95 75.5343 114.25 75.5343H115.336V75.8523H114.262C113.958 75.8523 113.746 75.9063 113.626 76.0143C113.51 76.1223 113.452 76.2563 113.452 76.4163C113.452 76.5963 113.522 76.7403 113.662 76.8483C113.802 76.9563 113.998 77.0103 114.25 77.0103C114.49 77.0103 114.696 76.9563 114.868 76.8483C115.044 76.7363 115.172 76.5763 115.252 76.3683L115.348 76.6623C115.268 76.8703 115.128 77.0363 114.928 77.1603C114.732 77.2843 114.484 77.3463 114.184 77.3463ZM118.443 74.1363C118.699 74.1363 118.923 74.1863 119.115 74.2863C119.311 74.3823 119.463 74.5303 119.571 74.7303C119.683 74.9303 119.739 75.1823 119.739 75.4863V77.3163H119.313V75.5283C119.313 75.1963 119.229 74.9463 119.061 74.7783C118.897 74.6063 118.665 74.5203 118.365 74.5203C118.141 74.5203 117.945 74.5663 117.777 74.6583C117.613 74.7463 117.485 74.8763 117.393 75.0483C117.305 75.2163 117.261 75.4203 117.261 75.6603V77.3163H116.835V74.1663H117.243V75.0303L117.177 74.8683C117.277 74.6403 117.437 74.4623 117.657 74.3343C117.877 74.2023 118.139 74.1363 118.443 74.1363ZM122.144 77.3463C121.844 77.3463 121.574 77.2783 121.334 77.1423C121.098 77.0063 120.912 76.8183 120.776 76.5783C120.64 76.3343 120.572 76.0543 120.572 75.7383C120.572 75.4183 120.64 75.1383 120.776 74.8983C120.912 74.6583 121.098 74.4723 121.334 74.3403C121.574 74.2043 121.844 74.1363 122.144 74.1363C122.42 74.1363 122.666 74.1983 122.882 74.3223C123.102 74.4463 123.276 74.6283 123.404 74.8683C123.536 75.1043 123.602 75.3943 123.602 75.7383C123.602 76.0783 123.538 76.3683 123.41 76.6083C123.282 76.8483 123.108 77.0323 122.888 77.1603C122.672 77.2843 122.424 77.3463 122.144 77.3463ZM122.174 76.9683C122.398 76.9683 122.598 76.9183 122.774 76.8183C122.954 76.7143 123.094 76.5703 123.194 76.3863C123.298 76.1983 123.35 75.9823 123.35 75.7383C123.35 75.4903 123.298 75.2743 123.194 75.0903C123.094 74.9063 122.954 74.7643 122.774 74.6643C122.598 74.5603 122.398 74.5083 122.174 74.5083C121.954 74.5083 121.756 74.5603 121.58 74.6643C121.404 74.7643 121.264 74.9063 121.16 75.0903C121.056 75.2743 121.004 75.4903 121.004 75.7383C121.004 75.9823 121.056 76.1983 121.16 76.3863C121.264 76.5703 121.404 76.7143 121.58 76.8183C121.756 76.9183 121.954 76.9683 122.174 76.9683ZM123.362 77.3163V76.3683L123.404 75.7323L123.344 75.0963V72.8643H123.77V77.3163H123.362ZM127.775 77.3523C127.463 77.3523 127.163 77.3023 126.875 77.2023C126.591 77.0983 126.371 76.9663 126.215 76.8063L126.389 76.4643C126.537 76.6083 126.735 76.7303 126.983 76.8303C127.235 76.9263 127.499 76.9743 127.775 76.9743C128.039 76.9743 128.253 76.9423 128.417 76.8783C128.585 76.8103 128.707 76.7203 128.783 76.6083C128.863 76.4963 128.903 76.3723 128.903 76.2363C128.903 76.0723 128.855 75.9403 128.759 75.8403C128.667 75.7403 128.545 75.6623 128.393 75.6063C128.241 75.5463 128.073 75.4943 127.889 75.4503C127.705 75.4063 127.521 75.3603 127.337 75.3123C127.153 75.2603 126.983 75.1923 126.827 75.1083C126.675 75.0243 126.551 74.9143 126.455 74.7783C126.363 74.6383 126.317 74.4563 126.317 74.2323C126.317 74.0243 126.371 73.8343 126.479 73.6623C126.591 73.4863 126.761 73.3463 126.989 73.2423C127.217 73.1343 127.509 73.0803 127.865 73.0803C128.101 73.0803 128.335 73.1143 128.567 73.1823C128.799 73.2463 128.999 73.3363 129.167 73.4523L129.017 73.8063C128.837 73.6863 128.645 73.5983 128.441 73.5423C128.241 73.4863 128.047 73.4583 127.859 73.4583C127.607 73.4583 127.399 73.4923 127.235 73.5603C127.071 73.6283 126.949 73.7203 126.869 73.8363C126.793 73.9483 126.755 74.0763 126.755 74.2203C126.755 74.3843 126.801 74.5163 126.893 74.6163C126.989 74.7163 127.113 74.7943 127.265 74.8503C127.421 74.9063 127.591 74.9563 127.775 75.0003C127.959 75.0443 128.141 75.0923 128.321 75.1443C128.505 75.1963 128.673 75.2643 128.825 75.3483C128.981 75.4283 129.105 75.5363 129.197 75.6723C129.293 75.8083 129.341 75.9863 129.341 76.2063C129.341 76.4103 129.285 76.6003 129.173 76.7763C129.061 76.9483 128.889 77.0883 128.657 77.1963C128.429 77.3003 128.135 77.3523 127.775 77.3523ZM131.214 77.3463C130.918 77.3463 130.69 77.2663 130.53 77.1063C130.37 76.9463 130.29 76.7203 130.29 76.4283V73.4703H130.716V76.4043C130.716 76.5883 130.762 76.7303 130.854 76.8303C130.95 76.9303 131.086 76.9803 131.262 76.9803C131.45 76.9803 131.606 76.9263 131.73 76.8183L131.88 77.1243C131.796 77.2003 131.694 77.2563 131.574 77.2923C131.458 77.3283 131.338 77.3463 131.214 77.3463ZM129.726 74.5203V74.1663H131.676V74.5203H129.726ZM134.63 77.3163V76.6203L134.612 76.5063V75.3423C134.612 75.0743 134.536 74.8683 134.384 74.7243C134.236 74.5803 134.014 74.5083 133.718 74.5083C133.514 74.5083 133.32 74.5423 133.136 74.6103C132.952 74.6783 132.796 74.7683 132.668 74.8803L132.476 74.5623C132.636 74.4263 132.828 74.3223 133.052 74.2503C133.276 74.1743 133.512 74.1363 133.76 74.1363C134.168 74.1363 134.482 74.2383 134.702 74.4423C134.926 74.6423 135.038 74.9483 135.038 75.3603V77.3163H134.63ZM133.544 77.3463C133.308 77.3463 133.102 77.3083 132.926 77.2323C132.754 77.1523 132.622 77.0443 132.53 76.9083C132.438 76.7683 132.392 76.6083 132.392 76.4283C132.392 76.2643 132.43 76.1163 132.506 75.9843C132.586 75.8483 132.714 75.7403 132.89 75.6603C133.07 75.5763 133.31 75.5343 133.61 75.5343H134.696V75.8523H133.622C133.318 75.8523 133.106 75.9063 132.986 76.0143C132.87 76.1223 132.812 76.2563 132.812 76.4163C132.812 76.5963 132.882 76.7403 133.022 76.8483C133.162 76.9563 133.358 77.0103 133.61 77.0103C133.85 77.0103 134.056 76.9563 134.228 76.8483C134.404 76.7363 134.532 76.5763 134.612 76.3683L134.708 76.6623C134.628 76.8703 134.488 77.0363 134.288 77.1603C134.092 77.2843 133.844 77.3463 133.544 77.3463ZM137.191 77.3463C136.895 77.3463 136.667 77.2663 136.507 77.1063C136.347 76.9463 136.267 76.7203 136.267 76.4283V73.4703H136.693V76.4043C136.693 76.5883 136.739 76.7303 136.831 76.8303C136.927 76.9303 137.063 76.9803 137.239 76.9803C137.427 76.9803 137.583 76.9263 137.707 76.8183L137.857 77.1243C137.773 77.2003 137.671 77.2563 137.551 77.2923C137.435 77.3283 137.315 77.3463 137.191 77.3463ZM135.703 74.5203V74.1663H137.653V74.5203H135.703ZM138.632 77.3163V74.1663H139.058V77.3163H138.632ZM138.848 73.4703C138.76 73.4703 138.686 73.4403 138.626 73.3803C138.566 73.3203 138.536 73.2483 138.536 73.1643C138.536 73.0803 138.566 73.0103 138.626 72.9543C138.686 72.8943 138.76 72.8643 138.848 72.8643C138.936 72.8643 139.01 72.8923 139.07 72.9483C139.13 73.0043 139.16 73.0743 139.16 73.1583C139.16 73.2463 139.13 73.3203 139.07 73.3803C139.014 73.4403 138.94 73.4703 138.848 73.4703ZM141.089 77.3463C140.829 77.3463 140.583 77.3103 140.351 77.2383C140.119 77.1623 139.937 77.0683 139.805 76.9563L139.997 76.6203C140.125 76.7163 140.289 76.8003 140.489 76.8723C140.689 76.9403 140.899 76.9743 141.119 76.9743C141.419 76.9743 141.635 76.9283 141.767 76.8363C141.899 76.7403 141.965 76.6143 141.965 76.4583C141.965 76.3423 141.927 76.2523 141.851 76.1883C141.779 76.1203 141.683 76.0703 141.563 76.0383C141.443 76.0023 141.309 75.9723 141.161 75.9483C141.013 75.9243 140.865 75.8963 140.717 75.8643C140.573 75.8323 140.441 75.7863 140.321 75.7263C140.201 75.6623 140.103 75.5763 140.027 75.4683C139.955 75.3603 139.919 75.2163 139.919 75.0363C139.919 74.8643 139.967 74.7103 140.063 74.5743C140.159 74.4383 140.299 74.3323 140.483 74.2563C140.671 74.1763 140.899 74.1363 141.167 74.1363C141.371 74.1363 141.575 74.1643 141.779 74.2203C141.983 74.2723 142.151 74.3423 142.283 74.4303L142.097 74.7723C141.957 74.6763 141.807 74.6083 141.647 74.5683C141.487 74.5243 141.327 74.5023 141.167 74.5023C140.883 74.5023 140.673 74.5523 140.537 74.6523C140.405 74.7483 140.339 74.8723 140.339 75.0243C140.339 75.1443 140.375 75.2383 140.447 75.3063C140.523 75.3743 140.621 75.4283 140.741 75.4683C140.865 75.5043 140.999 75.5343 141.143 75.5583C141.291 75.5823 141.437 75.6123 141.581 75.6483C141.729 75.6803 141.863 75.7263 141.983 75.7863C142.107 75.8423 142.205 75.9243 142.277 76.0323C142.353 76.1363 142.391 76.2743 142.391 76.4463C142.391 76.6303 142.339 76.7903 142.235 76.9263C142.135 77.0583 141.987 77.1623 141.791 77.2383C141.599 77.3103 141.365 77.3463 141.089 77.3463ZM144.169 77.3463C143.873 77.3463 143.645 77.2663 143.485 77.1063C143.325 76.9463 143.245 76.7203 143.245 76.4283V73.4703H143.671V76.4043C143.671 76.5883 143.717 76.7303 143.809 76.8303C143.905 76.9303 144.041 76.9803 144.217 76.9803C144.405 76.9803 144.561 76.9263 144.685 76.8183L144.835 77.1243C144.751 77.2003 144.649 77.2563 144.529 77.2923C144.413 77.3283 144.293 77.3463 144.169 77.3463ZM142.681 74.5203V74.1663H144.631V74.5203H142.681ZM145.611 77.3163V74.1663H146.037V77.3163H145.611ZM145.827 73.4703C145.739 73.4703 145.665 73.4403 145.605 73.3803C145.545 73.3203 145.515 73.2483 145.515 73.1643C145.515 73.0803 145.545 73.0103 145.605 72.9543C145.665 72.8943 145.739 72.8643 145.827 72.8643C145.915 72.8643 145.989 72.8923 146.049 72.9483C146.109 73.0043 146.139 73.0743 146.139 73.1583C146.139 73.2463 146.109 73.3203 146.049 73.3803C145.993 73.4403 145.919 73.4703 145.827 73.4703ZM148.53 77.3463C148.218 77.3463 147.938 77.2783 147.69 77.1423C147.446 77.0023 147.254 76.8123 147.114 76.5723C146.974 76.3283 146.904 76.0503 146.904 75.7383C146.904 75.4223 146.974 75.1443 147.114 74.9043C147.254 74.6643 147.446 74.4763 147.69 74.3403C147.938 74.2043 148.218 74.1363 148.53 74.1363C148.798 74.1363 149.04 74.1883 149.256 74.2923C149.472 74.3963 149.642 74.5523 149.766 74.7603L149.448 74.9763C149.34 74.8163 149.206 74.6983 149.046 74.6223C148.886 74.5463 148.712 74.5083 148.524 74.5083C148.3 74.5083 148.098 74.5603 147.918 74.6643C147.738 74.7643 147.596 74.9063 147.492 75.0903C147.388 75.2743 147.336 75.4903 147.336 75.7383C147.336 75.9863 147.388 76.2023 147.492 76.3863C147.596 76.5703 147.738 76.7143 147.918 76.8183C148.098 76.9183 148.3 76.9683 148.524 76.9683C148.712 76.9683 148.886 76.9303 149.046 76.8543C149.206 76.7783 149.34 76.6623 149.448 76.5063L149.766 76.7223C149.642 76.9263 149.472 77.0823 149.256 77.1903C149.04 77.2943 148.798 77.3463 148.53 77.3463ZM151.449 77.3463C151.189 77.3463 150.943 77.3103 150.711 77.2383C150.479 77.1623 150.297 77.0683 150.165 76.9563L150.357 76.6203C150.485 76.7163 150.649 76.8003 150.849 76.8723C151.049 76.9403 151.259 76.9743 151.479 76.9743C151.779 76.9743 151.995 76.9283 152.127 76.8363C152.259 76.7403 152.325 76.6143 152.325 76.4583C152.325 76.3423 152.287 76.2523 152.211 76.1883C152.139 76.1203 152.043 76.0703 151.923 76.0383C151.803 76.0023 151.669 75.9723 151.521 75.9483C151.373 75.9243 151.225 75.8963 151.077 75.8643C150.933 75.8323 150.801 75.7863 150.681 75.7263C150.561 75.6623 150.463 75.5763 150.387 75.4683C150.315 75.3603 150.279 75.2163 150.279 75.0363C150.279 74.8643 150.327 74.7103 150.423 74.5743C150.519 74.4383 150.659 74.3323 150.843 74.2563C151.031 74.1763 151.259 74.1363 151.527 74.1363C151.731 74.1363 151.935 74.1643 152.139 74.2203C152.343 74.2723 152.511 74.3423 152.643 74.4303L152.457 74.7723C152.317 74.6763 152.167 74.6083 152.007 74.5683C151.847 74.5243 151.687 74.5023 151.527 74.5023C151.243 74.5023 151.033 74.5523 150.897 74.6523C150.765 74.7483 150.699 74.8723 150.699 75.0243C150.699 75.1443 150.735 75.2383 150.807 75.3063C150.883 75.3743 150.981 75.4283 151.101 75.4683C151.225 75.5043 151.359 75.5343 151.503 75.5583C151.651 75.5823 151.797 75.6123 151.941 75.6483C152.089 75.6803 152.223 75.7263 152.343 75.7863C152.467 75.8423 152.565 75.9243 152.637 76.0323C152.713 76.1363 152.751 76.2743 152.751 76.4463C152.751 76.6303 152.699 76.7903 152.595 76.9263C152.495 77.0583 152.347 77.1623 152.151 77.2383C151.959 77.3103 151.725 77.3463 151.449 77.3463Z" fill="black"/>
<path d="M0.974609 61.3922L3.41074 65.0574H148.117L144.219 61.3922H0.974609Z" fill="#BD202A"/>
</svg>
